<?xml version="1.0" standalone="no"?>
<!DOCTYPE svg PUBLIC "-//W3C//DTD SVG 20010904//EN"
 "http://www.w3.org/TR/2001/REC-SVG-20010904/DTD/svg10.dtd">
<svg version="1.0" xmlns="http://www.w3.org/2000/svg"
 width="1254.000000pt" height="1254.000000pt" viewBox="0 0 1254.000000 1254.000000"
 preserveAspectRatio="xMidYMid meet">
<metadata>
Created by potrace 1.14, written by Peter Selinger 2001-2017
</metadata>
<g transform="translate(0.000000,1254.000000) scale(0.100000,-0.100000)"
fill="#000000" stroke="none">
<path d="M12 7183 c0 -1061 2 -1938 5 -1950 l5 -23 1943 0 c1769 0 1943 1
1949 16 8 21 8 3848 0 3868 -6 14 -201 16 -1954 16 l-1947 0 -1 -1927z m2093
1187 c12 -30 36 -98 54 -150 18 -52 36 -104 41 -115 5 -11 48 -126 96 -255 47
-129 126 -345 176 -480 49 -135 153 -418 230 -630 78 -212 159 -432 180 -490
22 -58 55 -150 74 -205 19 -55 39 -107 44 -116 4 -9 5 -20 2 -26 -8 -12 -272
-17 -288 -6 -6 5 -19 33 -28 63 -10 30 -22 64 -27 75 -5 11 -13 34 -18 50 -5
17 -26 75 -46 130 -20 55 -48 135 -63 178 l-26 77 -545 -2 -544 -3 -65 -180
c-35 -99 -80 -225 -100 -280 -20 -55 -40 -103 -46 -107 -6 -4 -71 -7 -144 -6
-102 0 -135 4 -139 14 -4 12 22 89 172 494 161 435 198 534 226 610 17 47 53
146 80 220 27 74 54 144 58 155 5 11 44 117 87 235 95 264 123 340 218 600 42
112 76 206 76 207 0 2 55 2 122 1 l122 -3 21 -55z"/>
<path d="M1928 7912 c-71 -209 -117 -337 -128 -354 -5 -10 -10 -22 -10 -28 0
-10 -180 -521 -246 -697 -19 -51 -34 -99 -34 -106 0 -12 68 -14 450 -14 248 0
453 3 455 6 2 4 -12 51 -31 106 -73 209 -124 355 -179 510 -31 88 -74 210 -94
270 -30 86 -91 259 -142 402 -2 6 -20 -37 -41 -95z"/>
<path d="M4323 7163 l2 -1948 1948 -3 1947 -2 0 1950 0 1950 -1950 0 -1950 0
3 -1947z m2825 1143 c1 -67 -1 -122 -7 -125 -5 -3 -298 -6 -650 -5 l-641 0 0
-458 0 -458 555 0 556 0 -3 -125 -3 -126 -546 1 c-492 0 -547 -1 -553 -16 -3
-8 -6 -261 -6 -560 l0 -545 -137 3 -138 3 -3 1268 -2 1267 787 -2 788 -3 3
-119z"/>
<path d="M8626 9073 c-7 -48 -7 -3822 0 -3845 5 -17 107 -18 1949 -18 1772 0
1943 1 1949 16 3 9 6 886 6 1950 l0 1934 -1949 0 -1949 0 -6 -37z m2328 -671
c91 -26 208 -86 272 -138 40 -33 154 -173 154 -189 0 -3 11 -30 24 -58 40 -90
51 -153 50 -297 -1 -149 -15 -221 -63 -320 -58 -119 -168 -233 -281 -290 -46
-23 -154 -61 -180 -63 -20 -1 -27 -12 -12 -19 4 -1 27 -41 51 -88 77 -149 173
-333 201 -385 15 -27 65 -122 110 -210 46 -88 87 -167 92 -175 4 -8 13 -26 18
-40 6 -14 18 -38 28 -55 48 -79 91 -168 86 -176 -3 -5 -74 -9 -158 -9 -123 0
-156 3 -166 15 -6 8 -39 67 -72 132 -33 65 -99 195 -148 288 -48 94 -145 283
-215 420 -70 138 -131 254 -135 259 -7 7 -145 9 -523 7 l-78 -1 1 -547 c0
-302 0 -553 0 -559 0 -9 -40 -12 -137 -10 l-138 1 -3 1268 -2 1268 572 -3
c559 -4 575 -4 652 -26z"/>
<path d="M10012 7728 l3 -453 365 -3 c409 -3 466 2 568 54 110 55 185 148 212
263 16 67 16 200 1 261 -24 95 -61 150 -160 240 -17 16 -96 50 -166 71 -28 9
-158 14 -433 16 l-392 4 2 -453z"/>
<path d="M502 4679 c-11 -5 -42 -76 -95 -220 -43 -118 -84 -230 -92 -249 -7
-19 -38 -102 -69 -185 -104 -285 -168 -460 -192 -523 l-23 -63 72 3 72 3 46
135 46 135 275 3 276 2 27 -77 c15 -43 32 -92 40 -108 7 -17 16 -45 19 -63 l8
-32 69 0 c38 0 69 3 69 8 0 4 -20 61 -44 127 -24 66 -83 228 -131 360 -48 132
-93 254 -101 272 -8 17 -14 34 -14 37 0 12 -153 421 -160 429 -10 11 -74 15
-98 6z m77 -269 c11 -36 36 -110 56 -165 82 -227 136 -388 133 -396 -2 -7
-286 -13 -447 -9 -4 0 14 62 41 138 27 75 79 222 115 325 36 103 69 184 74
180 4 -4 16 -37 28 -73z"/>
<path d="M1708 4682 l-48 -3 0 -620 0 -619 233 0 c261 0 324 8 415 52 70 35
120 84 155 155 48 96 52 130 52 423 0 261 -1 278 -23 342 -51 146 -167 246
-306 263 -56 7 -403 12 -478 7z m437 -123 c108 -20 181 -76 216 -167 21 -52
23 -79 27 -280 6 -359 -23 -454 -166 -524 -43 -21 -62 -23 -239 -26 l-193 -4
0 500 c0 274 3 502 7 505 11 11 284 8 348 -4z"/>
<path d="M3065 4680 c-3 -5 207 -657 354 -1095 l47 -140 54 0 53 0 82 250 c46
138 135 408 198 600 63 193 117 359 119 370 3 18 -2 20 -60 18 -35 0 -65 -3
-67 -5 -3 -2 -48 -139 -100 -304 -53 -164 -124 -386 -158 -491 -34 -106 -64
-193 -67 -193 -3 0 -25 60 -48 133 -128 397 -170 528 -221 686 l-56 173 -63 2
c-35 2 -65 0 -67 -4z"/>
<path d="M4819 4677 c-103 -29 -209 -114 -252 -203 -43 -86 -49 -137 -49 -406
0 -348 18 -419 132 -521 249 -224 652 -105 719 211 14 69 14 529 0 607 -23
124 -102 226 -222 285 -63 31 -78 34 -175 37 -67 2 -124 -2 -153 -10z m268
-132 c65 -32 118 -93 140 -160 20 -61 31 -476 15 -579 -19 -118 -64 -179 -170
-229 -55 -26 -71 -29 -135 -25 -83 4 -147 32 -202 86 -42 42 -62 85 -76 158
-14 75 -6 536 9 585 54 166 255 244 419 164z"/>
<path d="M6359 4677 c-101 -29 -214 -118 -252 -200 -44 -95 -51 -146 -51 -407
0 -330 14 -397 105 -495 57 -62 128 -104 211 -126 86 -23 142 -24 227 -4 163
39 273 153 315 328 l6 27 -65 0 c-54 0 -67 -3 -71 -17 -50 -159 -163 -241
-318 -231 -116 8 -205 67 -248 166 -24 57 -37 242 -31 437 7 216 23 275 97
343 63 58 144 86 229 78 111 -10 188 -61 236 -158 17 -34 31 -67 31 -75 0 -10
18 -13 70 -13 l70 0 -6 28 c-14 61 -75 170 -120 215 -26 26 -76 62 -112 79
-60 30 -76 33 -172 35 -63 2 -123 -2 -151 -10z"/>
<path d="M8844 4681 c-2 -2 -4 -28 -4 -57 l0 -54 178 -2 177 -3 3 -562 2 -563
65 0 65 0 0 565 0 565 180 0 181 0 -3 57 -3 57 -418 0 c-230 1 -421 -1 -423
-3z"/>
<path d="M10363 4682 l-33 -3 0 -620 0 -619 383 2 382 3 0 55 0 55 -318 5
c-174 3 -317 8 -317 13 0 4 0 104 0 222 l0 215 270 0 270 0 0 60 0 60 -270 0
c-209 0 -270 3 -271 13 0 6 0 104 0 217 l1 205 320 3 321 2 -3 57 -3 56 -350
1 c-192 1 -365 0 -382 -2z"/>
<path d="M11960 4676 c-70 -19 -113 -43 -158 -88 -125 -123 -132 -346 -15
-463 64 -64 149 -94 378 -130 167 -26 227 -82 226 -210 -1 -103 -32 -154 -122
-201 -44 -23 -70 -28 -145 -32 -142 -7 -238 22 -324 95 l-42 36 -41 -42 c-51
-50 -48 -57 44 -119 81 -54 166 -80 288 -88 258 -16 439 95 469 289 11 69 -1
164 -27 216 -50 98 -141 151 -298 176 -295 46 -357 87 -357 235 0 68 16 113
58 158 84 94 322 97 440 6 25 -19 49 -34 53 -34 5 0 26 17 47 39 l37 38 -38
32 c-46 38 -124 77 -184 90 -60 14 -234 12 -289 -3z"/>
<path d="M7897 4673 c-5 -8 -207 -552 -287 -773 -23 -63 -68 -186 -101 -274
-32 -87 -59 -165 -59 -173 0 -11 14 -13 66 -11 l66 3 48 135 47 135 275 3 275
2 43 -122 c59 -170 49 -158 125 -158 36 0 65 3 65 7 0 6 -51 146 -195 538 -19
50 -54 149 -80 220 -25 72 -59 164 -74 205 -16 41 -45 118 -64 170 l-35 95
-55 3 c-30 2 -57 -1 -60 -5z m109 -319 c106 -300 174 -498 174 -506 0 -4 -103
-8 -230 -8 -126 0 -230 2 -230 5 0 3 4 13 10 23 5 9 25 62 43 117 72 208 180
505 184 501 2 -2 24 -61 49 -132z"/>
</g>
</svg>
