<?xml version="1.0" standalone="no"?>
<!DOCTYPE svg PUBLIC "-//W3C//DTD SVG 20010904//EN"
 "http://www.w3.org/TR/2001/REC-SVG-20010904/DTD/svg10.dtd">
<svg version="1.0" xmlns="http://www.w3.org/2000/svg"
 width="260.000000pt" height="260.000000pt" viewBox="0 0 260.000000 260.000000"
 preserveAspectRatio="xMidYMid meet">
<metadata>
Created by potrace 1.14, written by Peter Selinger 2001-2017
</metadata>
<g transform="translate(0.000000,260.000000) scale(0.100000,-0.100000)"
fill="#000000" stroke="none">
<path d="M0 1500 c0 -278 3 -419 10 -415 6 3 10 0 10 -7 0 -10 2 -10 9 1 6 9
10 10 16 2 5 -9 10 -9 21 0 11 9 17 9 28 0 11 -9 16 -9 21 0 6 8 10 7 16 -2 5
-8 9 -9 9 -4 0 6 11 11 25 11 14 1 23 -2 20 -6 -5 -8 51 -4 66 5 5 4 9 0 9 -7
0 -10 2 -10 9 1 6 9 11 10 15 2 4 -6 13 -8 19 -4 20 12 37 12 37 0 0 -8 3 -7
9 2 6 9 10 10 16 2 5 -9 10 -9 21 0 11 9 17 9 28 0 11 -9 16 -9 21 0 6 8 10 7
16 -2 5 -8 9 -9 9 -4 0 6 11 11 25 11 14 1 23 -2 20 -6 -5 -8 51 -4 66 5 5 4
9 0 9 -7 0 -10 2 -10 9 1 6 9 11 10 15 2 4 -6 13 -8 19 -4 20 12 37 12 37 0 0
-8 3 -7 9 2 6 9 10 10 16 2 5 -9 10 -9 21 0 11 9 17 9 28 0 11 -9 16 -9 21 0
6 8 10 7 16 -2 6 -10 9 -10 9 -2 0 7 7 10 15 7 9 -4 15 0 16 7 1 8 2 23 3 34
0 11 -2 28 -6 37 -5 10 -3 20 4 24 7 5 8 3 3 -6 -6 -9 -4 -11 4 -6 9 6 8 13
-6 29 -10 11 -12 17 -5 13 9 -5 11 2 6 31 -3 21 -8 42 -12 47 -3 5 0 6 6 2 16
-10 15 16 0 33 -11 11 -10 13 0 7 9 -6 11 2 6 31 -3 21 -8 42 -12 47 -3 5 1 6
8 1 10 -6 11 -2 6 19 -4 18 -2 26 6 26 9 0 9 3 2 8 -6 4 -10 42 -9 92 1 47 -2
97 -6 113 -5 18 -4 25 2 21 7 -4 9 6 5 27 -3 19 0 40 7 48 8 10 9 13 1 8 -8
-5 -12 4 -12 27 0 19 -3 40 -8 47 -4 8 -3 10 4 5 8 -5 12 1 12 14 0 14 -4 19
-12 14 -7 -4 -5 2 6 14 l18 21 -416 1 -416 0 0 -420z m447 255 c8 -8 12 -19 8
-25 -3 -5 0 -20 7 -32 7 -13 11 -29 10 -35 -2 -7 4 -13 12 -13 11 0 15 -7 12
-22 -2 -13 3 -33 11 -44 8 -12 13 -26 11 -30 -1 -5 3 -19 10 -31 7 -12 11 -26
10 -30 -1 -4 3 -18 10 -30 7 -12 11 -26 10 -30 -1 -4 3 -18 10 -30 7 -13 9
-23 5 -23 -4 0 -1 -5 7 -10 8 -5 15 -21 15 -35 1 -14 7 -30 14 -35 8 -4 11
-15 8 -24 -3 -8 -2 -18 4 -22 12 -7 -8 -34 -25 -34 -24 0 -66 54 -60 77 9 34
-26 45 -137 45 -54 -1 -103 -3 -108 -6 -5 -3 -7 -15 -4 -25 3 -10 0 -22 -6
-25 -6 -4 -11 -14 -11 -22 0 -8 -8 -24 -19 -35 l-19 -20 -28 25 c-22 19 -25
25 -12 26 10 0 15 7 13 18 -1 9 4 27 12 40 8 13 12 30 9 37 -2 7 2 19 10 26 9
7 14 23 11 35 -2 14 2 25 9 28 8 3 14 14 14 25 0 11 9 36 20 56 11 20 20 47
20 60 0 14 5 25 10 25 6 0 10 14 10 30 0 17 5 30 10 30 6 0 10 14 10 30 0 17
5 30 10 30 6 0 10 8 10 18 0 10 3 21 6 25 9 9 55 -3 71 -18z"/>
<path d="M395 1641 c-3 -6 -4 -15 0 -20 3 -5 -2 -16 -10 -24 -8 -9 -15 -27
-15 -41 0 -14 -4 -28 -10 -31 -5 -3 -10 -19 -10 -35 0 -15 -6 -30 -14 -33 -8
-3 -12 -15 -9 -29 4 -24 8 -25 86 -24 82 1 101 10 74 37 -7 8 -13 24 -12 37 1
13 -5 27 -14 32 -9 5 -13 10 -8 10 4 0 1 13 -7 29 -9 16 -14 38 -11 49 4 23
-29 60 -40 43z"/>
<path d="M892 1768 c0 -103 3 -158 11 -167 9 -11 9 -13 1 -8 -16 9 -16 -212 0
-232 8 -11 8 -13 0 -8 -8 5 -11 -34 -12 -139 0 -81 4 -140 8 -133 7 10 12 10
23 1 7 -7 17 -9 21 -5 12 12 36 12 36 0 0 -8 3 -7 9 2 6 9 10 10 16 2 5 -9 10
-9 21 0 11 9 17 9 28 0 11 -9 16 -9 21 0 6 8 10 7 16 -2 5 -8 9 -9 9 -4 0 6
11 11 25 11 14 1 23 -2 20 -6 -5 -8 51 -4 66 5 5 4 9 0 9 -7 0 -10 2 -10 9 1
6 9 10 10 16 2 5 -9 10 -9 21 0 11 9 17 9 28 0 11 -9 16 -9 21 0 6 8 10 7 16
-2 6 -9 9 -10 9 -2 0 9 19 11 40 3 14 -6 37 -5 58 2 15 5 22 3 22 -5 0 -8 3
-8 9 2 6 9 10 10 16 2 5 -9 10 -9 21 0 11 9 17 9 28 0 11 -9 16 -9 21 0 6 8
10 7 16 -2 6 -9 9 -10 9 -2 0 11 24 12 35 1 10 -9 65 1 88 17 12 8 16 15 10
15 -6 0 -10 8 -8 18 1 9 -3 23 -9 31 -8 11 -8 13 2 7 7 -4 12 -1 12 9 0 10 -5
13 -12 9 -7 -5 -8 -3 -2 7 11 19 16 51 6 45 -4 -2 -8 4 -8 15 0 12 5 18 13 14
11 -3 11 0 3 15 -6 11 -8 20 -4 20 3 0 0 8 -7 17 -10 11 -10 14 -1 9 7 -4 12
-1 12 9 0 10 -5 13 -12 9 -7 -5 -8 -3 -2 7 11 19 16 51 6 45 -4 -2 -8 4 -8 15
0 12 5 18 13 14 11 -3 11 0 3 15 -6 11 -8 20 -4 20 3 0 0 8 -7 17 -10 11 -10
14 -1 9 7 -4 12 -1 12 9 0 10 -5 13 -12 9 -7 -5 -8 -3 -2 7 11 19 16 51 6 45
-4 -2 -8 4 -8 15 0 12 5 18 13 14 10 -3 11 0 5 13 -5 9 -8 32 -6 50 1 18 -1
30 -4 28 -4 -2 -7 6 -7 19 0 19 3 21 14 12 12 -10 13 -9 4 7 -6 10 -8 28 -6
40 4 17 3 18 -6 6 -7 -9 -11 -10 -11 -3 0 6 4 14 8 17 11 6 9 36 -3 55 -5 10
-4 12 4 7 8 -5 10 5 8 36 l-4 43 -405 3 -406 2 0 -152z m592 -18 c-1 -14 -2
-28 -3 -31 0 -3 -58 -5 -127 -5 -69 1 -129 -3 -132 -8 -8 -14 -9 -155 0 -168
4 -8 45 -12 114 -12 105 -1 107 -2 109 -24 1 -13 -3 -26 -9 -29 -6 -4 -56 -8
-111 -9 -55 -1 -102 -2 -105 -3 -3 0 -5 -49 -4 -108 0 -96 -2 -110 -19 -122
-17 -12 -21 -12 -32 2 -7 9 -15 14 -18 10 -4 -3 -7 -1 -7 5 0 6 3 13 8 16 10
6 9 462 -1 472 -4 4 0 15 8 23 12 14 39 17 172 16 l158 0 -1 -25z"/>
<path d="M1783 1903 c1 -10 7 -24 11 -32 6 -9 5 -12 -1 -8 -6 4 -13 0 -17 -8
-3 -8 -1 -17 4 -20 6 -4 10 -11 10 -16 0 -6 -3 -8 -7 -6 -5 3 -8 -6 -8 -19 0
-14 6 -24 14 -24 11 0 10 -4 -4 -13 -12 -10 -15 -16 -6 -21 8 -5 8 -13 1 -27
-9 -15 -7 -19 7 -19 17 -1 17 -1 0 -11 -14 -8 -15 -14 -7 -24 8 -10 8 -19 1
-34 -7 -13 -8 -22 -1 -26 5 -3 10 -11 10 -16 0 -6 -4 -8 -9 -5 -10 7 -9 -13 1
-29 4 -6 3 -17 -2 -25 -4 -7 -4 -24 1 -37 11 -30 11 -36 0 -29 -10 7 -9 -13 1
-29 4 -6 3 -17 -2 -25 -4 -7 -4 -24 1 -37 12 -32 11 -36 -3 -27 -10 5 -10 4
-1 -6 8 -9 9 -19 3 -31 -7 -11 -7 -20 0 -24 5 -3 10 -11 10 -16 0 -6 -4 -8 -9
-5 -10 7 -9 -20 2 -30 3 -4 2 -14 -3 -23 -5 -10 -5 -23 0 -31 5 -9 4 -20 -3
-29 -10 -12 -9 -13 3 -6 13 8 13 7 1 -8 -9 -12 -10 -17 -2 -17 7 0 10 -3 7 -8
-2 -4 7 -12 20 -19 14 -6 26 -7 30 -2 3 5 11 6 17 2 16 -10 38 -10 60 0 11 5
17 4 17 -5 0 -8 3 -9 8 -3 6 10 23 12 37 5 6 -3 44 -3 48 0 10 7 37 6 37 -2 0
-6 6 -5 15 2 12 10 15 10 15 -1 0 -9 3 -10 8 -4 6 10 23 12 37 5 6 -3 44 -3
48 0 10 7 37 6 37 -2 0 -7 5 -6 14 1 10 9 16 9 21 1 5 -8 11 -8 21 1 11 9 14
8 14 -2 0 -9 3 -10 8 -4 6 10 20 11 40 5 17 -6 39 -5 60 2 15 5 22 3 22 -5 0
-8 3 -8 9 2 6 9 10 10 16 2 5 -9 10 -9 21 0 11 9 17 9 28 0 11 -9 16 -9 21 0
6 8 10 7 16 -2 7 -11 9 -11 9 -1 0 7 5 10 10 7 6 -4 18 -1 26 6 12 10 13 9 8
-6 -5 -11 -4 -16 3 -12 7 4 10 151 10 427 l1 420 -409 0 c-384 0 -409 -1 -406
-17z m544 -175 c48 -47 48 -48 47 -110 -1 -62 -2 -63 -53 -109 -28 -25 -51
-51 -51 -58 0 -7 5 -9 10 -6 6 3 10 0 10 -8 0 -8 14 -41 30 -72 17 -31 30 -62
30 -67 0 -6 9 -19 21 -29 20 -17 20 -19 4 -35 -14 -15 -20 -15 -37 -5 -11 7
-17 8 -13 2 9 -16 -4 -13 -21 3 -8 8 -14 22 -14 30 0 9 -4 16 -10 16 -5 0 -10
9 -10 20 0 11 -4 20 -10 20 -5 0 -10 9 -10 20 0 11 -4 20 -10 20 -5 0 -10 9
-10 20 0 11 -4 20 -10 20 -5 0 -10 8 -10 19 0 10 -7 24 -16 32 -17 14 -103 21
-105 8 -1 -5 -2 -53 -3 -106 -1 -86 -4 -101 -23 -120 -20 -20 -23 -21 -41 -5
-17 16 -19 34 -19 277 0 143 1 262 3 265 1 3 63 5 138 5 l136 0 47 -47z"/>
<path d="M2099 1712 c-13 -2 -16 -18 -15 -88 1 -54 5 -87 13 -92 19 -12 145
-5 153 8 4 6 10 11 14 11 20 -3 26 1 26 18 0 10 6 21 14 24 14 6 13 14 -10 80
-4 9 -12 17 -18 17 -7 0 -17 5 -24 12 -11 11 -113 18 -153 10z"/>
<path d="M352 965 c-12 -14 -18 -25 -14 -25 11 0 9 -132 -2 -149 -6 -10 -6
-12 2 -7 8 5 12 -1 12 -14 0 -14 -4 -19 -12 -14 -10 6 -10 4 0 -7 6 -7 12 -20
12 -29 0 -12 12 -16 55 -16 30 0 55 4 55 9 0 4 5 5 10 2 6 -3 10 -2 10 4 0 5
9 13 20 16 11 4 18 10 15 15 -3 5 0 12 6 15 5 4 8 13 6 19 -3 7 -1 19 3 27 5
8 4 19 -2 26 -7 9 -7 13 1 13 7 0 9 5 4 13 -14 22 -14 49 -1 41 8 -5 8 -1 -2
12 -26 34 -48 53 -54 47 -3 -4 -6 -1 -6 6 0 7 -6 11 -13 8 -8 -3 -20 -1 -28 3
-8 5 -19 4 -26 -2 -9 -7 -13 -7 -13 1 0 18 -15 13 -38 -14z m122 -37 c20 -21
31 -108 13 -108 -7 0 -6 -4 3 -10 13 -9 13 -11 0 -20 -8 -5 -11 -10 -6 -10 5
0 1 -8 -8 -19 -14 -16 -58 -21 -96 -12 -5 1 -6 194 -1 197 14 7 82 -5 95 -18z
m-64 -202 c0 -2 -7 -7 -16 -10 -8 -3 -12 -2 -9 4 6 10 25 14 25 6z"/>
<path d="M639 988 c-6 -21 -5 -39 2 -44 5 -3 9 -14 9 -25 0 -10 4 -19 8 -19 5
0 8 -10 7 -22 -1 -13 3 -32 8 -43 6 -11 10 -26 9 -32 -2 -7 3 -13 9 -13 7 0
10 -3 6 -6 -8 -8 13 -64 25 -64 5 0 6 -5 3 -11 -4 -6 1 -5 12 2 12 7 19 21 17
35 -1 13 2 24 7 24 5 0 9 11 9 25 0 14 5 25 11 25 6 0 9 6 7 12 -3 7 1 24 8
37 7 14 11 28 8 33 -3 4 0 8 7 8 7 0 9 3 6 7 -4 3 -1 13 6 21 10 13 9 14 -3 7
-13 -7 -13 -6 -2 7 10 13 10 17 -3 21 -17 7 -39 -27 -29 -46 4 -6 3 -8 -1 -4
-10 9 -37 -72 -29 -85 3 -4 0 -8 -5 -8 -6 0 -11 -6 -11 -13 0 -8 -7 -14 -15
-14 -8 0 -13 2 -11 5 3 2 0 16 -6 31 -5 14 -12 40 -15 56 -3 17 -8 32 -12 35
-4 3 -7 14 -7 25 1 14 -5 19 -18 17 -11 -2 -15 1 -11 7 3 6 4 11 1 11 -3 0 -6
-1 -7 -2z"/>
<path d="M996 977 c-29 -17 -61 -47 -52 -47 5 0 3 -7 -4 -15 -6 -8 -9 -19 -6
-24 4 -5 2 -12 -3 -15 -5 -4 -5 -21 -1 -43 6 -26 5 -40 -3 -45 -9 -6 -9 -8 1
-8 6 0 12 -6 12 -13 0 -21 55 -62 81 -60 44 4 64 11 62 22 -2 6 3 11 10 11 6
0 17 16 23 35 6 19 7 35 2 35 -4 0 -6 12 -2 28 7 35 6 61 -6 92 -1 3 -2 8 -1
13 0 4 -6 7 -15 7 -8 0 -13 4 -10 9 7 11 -12 19 -41 16 -12 -1 -20 2 -17 7 7
11 -7 9 -30 -5z m79 -55 c11 -16 13 -22 4 -17 -11 6 -12 5 -1 -6 6 -7 12 -19
12 -27 0 -8 -5 -10 -12 -6 -8 5 -7 0 2 -11 18 -22 18 -18 1 -39 -11 -14 -12
-19 -3 -25 9 -5 5 -15 -14 -34 -19 -19 -30 -24 -39 -17 -6 5 -15 7 -19 3 -10
-10 -35 29 -36 58 0 14 -6 31 -12 38 -11 11 -10 12 0 6 10 -5 13 -1 12 11 -4
39 0 75 9 70 5 -3 11 0 14 7 9 23 61 16 82 -11z"/>
<path d="M1327 977 c4 -6 0 -8 -9 -4 -10 3 -26 -6 -43 -24 -22 -26 -24 -33
-13 -47 9 -11 10 -14 1 -8 -7 4 -13 4 -14 -1 0 -4 -2 -16 -4 -25 -2 -10 1 -21
7 -24 6 -4 7 -9 0 -13 -16 -10 16 -102 39 -108 10 -3 17 -8 15 -12 -2 -3 11
-7 30 -8 19 -1 34 3 34 9 0 6 3 9 6 5 9 -9 65 53 59 64 -10 15 -35 10 -35 -8
0 -9 -3 -14 -6 -10 -4 3 -13 -1 -22 -9 -8 -9 -23 -13 -34 -11 -12 3 -16 1 -12
-6 4 -7 -3 -2 -14 10 -12 12 -23 36 -24 52 -1 17 -7 31 -12 31 -5 0 -1 7 10
16 10 8 14 13 8 10 -8 -4 -11 5 -10 24 0 17 5 30 10 30 5 0 6 3 3 7 -11 11 26
32 57 33 16 0 27 -3 23 -6 -9 -9 42 -56 53 -49 5 3 6 13 3 23 -6 17 -55 69
-60 65 -2 -2 -4 -3 -5 -2 -19 6 -46 3 -41 -4z"/>
<path d="M1850 980 c0 -5 -7 -10 -16 -10 -13 0 -14 -3 -5 -14 7 -9 23 -12 41
-10 25 4 29 2 25 -15 -2 -12 0 -21 5 -21 5 0 5 -13 0 -30 -5 -18 -5 -30 0 -30
6 0 5 -12 -1 -27 -7 -19 -7 -29 0 -31 6 -2 7 -12 2 -25 -8 -21 2 -67 14 -67 4
0 3 5 -1 12 -5 8 -2 9 10 5 13 -5 15 -2 12 18 -3 14 -8 30 -12 36 -4 8 -3 9 5
5 12 -8 9 33 -5 55 -4 7 -3 9 3 6 7 -4 9 13 8 51 l-3 57 35 2 c20 1 41 7 47
14 8 9 8 10 -1 5 -7 -4 -13 -3 -13 3 0 6 -7 8 -15 5 -9 -4 -15 0 -15 7 0 11
-3 11 -10 -1 -8 -13 -10 -13 -10 -1 0 12 -3 12 -12 3 -7 -7 -17 -12 -22 -12
-6 0 -4 5 4 11 12 9 11 10 -5 4 -11 -4 -26 -9 -32 -12 -7 -3 -13 0 -13 6 0 6
-4 11 -10 11 -5 0 -10 -4 -10 -10z"/>
<path d="M2147 973 c3 -7 1 -13 -4 -13 -11 0 -10 -50 2 -69 5 -9 4 -12 -3 -7
-6 3 -13 2 -16 -3 -3 -5 1 -12 10 -15 9 -4 12 -11 7 -18 -11 -18 -13 -40 -5
-52 10 -17 11 -37 1 -30 -5 3 -6 10 -3 16 4 7 2 8 -5 4 -7 -5 -8 -13 -2 -23 4
-9 6 -25 4 -37 -4 -17 -3 -18 6 -6 9 13 11 12 11 -5 0 -17 2 -17 10 -5 5 8 10
10 10 4 0 -6 7 -11 15 -11 8 0 12 4 9 8 -2 4 1 11 7 15 7 4 9 3 6 -3 -4 -6 1
-17 10 -24 15 -12 16 -12 11 3 -6 14 -2 15 23 8 21 -6 33 -5 44 6 21 21 19 24
-15 20 -16 -2 -30 0 -30 3 0 4 -15 6 -32 5 -40 -3 -55 9 -52 38 1 13 3 29 3
36 1 7 6 10 11 7 6 -3 10 -1 10 5 0 6 5 8 12 3 17 -10 70 -4 83 9 7 8 6 9 -2
4 -8 -4 -13 -1 -13 7 0 11 -12 14 -49 12 -46 -3 -49 -1 -53 24 -8 54 -2 60 63
59 33 -1 65 4 71 10 9 9 8 12 -6 12 -11 0 -15 4 -10 13 6 9 5 9 -7 0 -12 -10
-18 -10 -29 0 -10 9 -11 9 -6 0 4 -7 2 -13 -3 -13 -6 0 -11 4 -11 10 0 6 -9 6
-25 0 -14 -5 -25 -6 -25 -2 0 4 -8 8 -19 8 -11 0 -17 -5 -14 -13z"/>
<path d="M2485 980 c-3 -5 -13 -6 -22 -3 -9 4 -14 2 -11 -3 5 -9 -27 -46 -34
-39 -1 2 -3 -8 -3 -21 0 -13 4 -24 8 -24 5 0 6 -4 3 -8 -9 -15 42 -52 74 -54
16 -1 30 -6 30 -11 0 -4 4 -6 9 -2 10 6 26 -13 26 -30 0 -14 -28 -43 -37 -38
-5 2 -8 0 -8 -6 0 -10 -43 -1 -78 18 -17 9 -21 7 -25 -10 -3 -12 -3 -18 0 -15
3 3 13 -2 22 -12 17 -19 64 -25 54 -8 -4 7 -1 7 6 0 14 -13 51 -7 51 8 0 5 5
6 11 3 6 -4 13 2 16 14 3 11 9 18 14 15 10 -6 12 36 3 60 -3 9 -10 13 -15 10
-5 -3 -9 1 -9 9 0 14 -46 30 -82 30 -10 0 -18 6 -18 13 0 8 -5 14 -11 14 -13
0 -1 42 15 52 16 11 64 10 71 -2 11 -17 31 -11 31 9 0 11 -4 17 -8 15 -4 -3
-8 -1 -8 5 0 6 -7 7 -17 4 -12 -5 -14 -3 -8 8 8 12 6 12 -8 0 -11 -9 -17 -10
-17 -2 0 13 -17 15 -25 1z"/>
<path d="M92 971 c4 -15 -15 -71 -22 -66 -4 3 -6 -3 -3 -13 2 -10 -3 -24 -12
-32 -14 -12 -14 -15 2 -34 15 -17 15 -18 1 -8 -11 9 -18 10 -23 2 -3 -5 -1
-10 6 -10 8 0 6 -7 -5 -19 -10 -11 -15 -25 -11 -30 3 -6 -1 -14 -9 -17 -18 -7
-21 -30 -6 -39 6 -4 7 1 4 12 -5 16 -4 16 10 -1 14 -17 16 -18 16 -3 0 9 4 17
10 17 5 0 9 3 9 8 -4 25 4 30 57 27 30 -1 61 -8 67 -15 9 -10 9 -11 -2 -5 -9
5 -12 3 -9 -6 3 -8 11 -13 17 -11 7 1 10 -2 7 -7 -10 -16 8 -20 22 -5 10 11 9
17 -8 34 -11 11 -16 20 -10 20 5 0 7 7 4 15 -4 8 -9 13 -13 11 -4 -3 -6 8 -5
22 0 15 -3 30 -8 33 -5 3 -10 15 -11 27 0 11 -5 18 -11 15 -5 -4 -7 3 -3 16 3
12 -1 27 -8 35 -8 7 -12 16 -9 19 3 2 -6 7 -20 9 -14 3 -24 2 -24 -1z m33 -71
c-2 -3 5 -25 16 -49 22 -50 22 -51 8 -51 -5 0 -7 6 -4 13 4 6 -1 3 -10 -8 -12
-14 -19 -16 -22 -7 -3 6 -8 10 -13 7 -11 -7 -25 36 -14 44 9 6 16 27 17 47 0
6 6 11 13 11 7 0 11 -3 9 -7z"/>
<path d="M1630 958 c0 -10 -7 -21 -15 -24 -12 -5 -13 -10 -4 -20 9 -11 8 -14
-4 -14 -10 0 -14 -6 -11 -15 4 -8 1 -15 -6 -15 -6 0 -8 -5 -5 -10 4 -6 2 -16
-3 -23 -6 -7 -12 -23 -14 -37 -1 -14 -6 -27 -10 -30 -7 -6 -11 -27 -9 -54 1
-18 2 -18 21 -1 11 10 17 21 15 26 -9 13 18 24 63 26 26 0 42 -3 42 -10 0 -7
5 -5 10 3 8 12 10 9 10 -12 0 -17 8 -31 20 -38 16 -9 20 -8 20 5 0 22 -24 95
-31 95 -4 0 -6 12 -6 26 0 15 -7 30 -14 35 -7 4 -10 11 -6 15 4 4 2 13 -4 21
-6 7 -8 13 -3 13 5 0 3 4 -4 9 -7 4 -14 17 -15 29 -2 26 -37 26 -37 0z m25
-58 c-3 -5 -2 -10 3 -10 8 0 10 -6 14 -49 1 -11 6 -17 10 -15 12 8 9 -11 -4
-24 -7 -7 -17 -8 -30 -1 -12 7 -18 6 -18 -1 0 -6 -4 -8 -10 -5 -5 3 -9 21 -7
40 1 18 5 31 10 28 4 -2 8 1 8 6 1 6 3 16 4 21 1 6 3 12 4 15 0 3 6 5 12 5 5
0 7 -4 4 -10z"/>
</g>
</svg>
